# xmcd CD database file
#
# Track frame offsets:
#	150
#	35401
#	51895
#	64566
#	97451
#	117062
#	146427
#	159615
#	183398
#	200663
#	215482
#	237288
#
# Disc length: 3492 seconds
#
# Revision: 0
# Processed by: cddbd v1.5.2PL0 Copyright (c) Steve Scherf et al.
# Submitted via: CDex 2.23
#
DISCID=b00da20c
DTITLE=Analogue Birds - IntraTransport
DYEAR=2011
DGENRE=Jazz
TTITLE0=IntraTransport
TTITLE1=Puzzled
TTITLE2=Brainticket
TTITLE3=Planetary Nebula
TTITLE4=Moondock
TTITLE5=Ill Gotten Benefits
TTITLE6=La Luz
TTITLE7=Aggro Agrar Agave
TTITLE8=Rock n Roll
TTITLE9=InterTransport
TTITLE10=Way Outta Line
TTITLE11=Deadline Dance
EXTD=YEAR: 2011
EXTT0=
EXTT1=
EXTT2=
EXTT3=
EXTT4=
EXTT5=
EXTT6=
EXTT7=
EXTT8=
EXTT9=
EXTT10=
EXTT11=
PLAYORDER=
